<svg xmlns="http://www.w3.org/2000/svg" width="422.631" height="201.087" viewBox="0 0 422.631 201.087">
  <g id="Group_1833" data-name="Group 1833" transform="translate(-503.24 -249.634)">
    <path id="Path_42" data-name="Path 42" d="M-190.921,0h12.474l6.039-28.512h1.782c4.059,0,4.653,1.683,3.267,8.217C-169.537-10-171.022-2.97-170.923,0h12.276c.2-3.465,1.881-11.583,3.267-17.919,2.376-10.2.4-13.266-2.475-15.246,3.861-1.089,7.227-3.96,8.91-11.88l.792-3.861c2.376-11.385-2.574-17.127-13.563-17.127h-15.246Zm24.354-56.232h1.98c4.257,0,4.752,2.079,3.861,6.534l-.792,4.059c-1.089,5.94-2.574,7.227-7.128,7.227h-1.683Zm49.4,33.462,2.475-11.682c2.178-10.2.5-18.414-13.068-18.414-12.375,0-16.038,7.821-18.018,17.127l-3.663,17.325c-2.178,10-.891,19.206,12.87,19.206,12.474,0,15.84-7.029,17.622-15.84l.3-1.485h-12.177l-.495,2.277c-.5,2.673-1.287,5.247-4.158,5.247-2.574,0-2.97-2.277-2.277-5.643l1.683-8.118ZM-134.1-31.878l1.188-5.742c.891-4.257,1.881-5.94,4.455-5.94,2.97,0,2.97,2.475,2.277,5.94l-1.188,5.742Zm23.859-9.8h5.049l-6.831,30.492C-113.9-2.079-110.335.693-102.712.693A26.991,26.991,0,0,0-95.584-.2l2.079-9.6a15.055,15.055,0,0,1-2.772.2c-2.772,0-3.168-1.386-2.673-3.762l6.336-28.314h5.841L-84.5-52.173h-5.94l2.673-11.781h-12.276l-2.673,11.781h-5.247ZM-90.535,0h12.474l7.722-36.333c.99-4.554,2.079-6.336,4.851-6.336,2.871,0,3.069,2.079,2.376,5.445L-71.032,0h12.474l8.415-39.6c1.683-7.524-.2-13.365-7.92-13.365a12.478,12.478,0,0,0-9.7,4.356L-63.409-69H-75.883Zm39.4,0h12.474l11.088-52.173H-40.045Zm12.276-57.42h12.474L-24.007-69H-36.382ZM-31.234,0H-18.76l7.623-35.541c.99-5.148,2.277-7.128,4.95-7.128,2.376,0,3.069,1.98,2.376,5.544L-11.731,0H.743L9.257-40c1.584-7.524-.891-12.969-8.118-12.969a12.258,12.258,0,0,0-9.8,4.653c.2-1.188.4-2.574.594-3.861H-20.344c-.3,1.98-1.188,6.336-3.069,15.642ZM35-69H22.721L8.069,0H20.345l3.168-14.553a74.216,74.216,0,0,0,4.752-6.93c0,1.782,1.089,19.4,1.089,21.483H41.729c0-3.96-2.673-28.71-2.574-32.373,3.96-6.435,8.811-13.068,13.068-19.8H39.155c-3.267,6.039-8.613,15.147-11.88,21.087h-.3ZM57.47,0H69.944l7.722-36.333c.99-4.554,2.079-6.336,4.851-6.336,2.871,0,3.069,2.079,2.376,5.445L76.973,0H89.447l8.415-39.6c1.683-7.524-.2-13.365-7.92-13.365a12.478,12.478,0,0,0-9.7,4.356L84.6-69H72.122Zm64.35-52.965c-10,0-15.642,4.752-18.018,15.939l-4.257,20.2C97.169-5.445,102.02.792,113.009.792c11.187,0,15.939-5.148,18.315-16.533l4.059-19.008C137.858-46.728,132.413-52.965,121.82-52.965Zm-.99,9.9c3.168,0,3.267,2.475,2.673,5.445l-4.851,22.968c-.693,3.168-1.683,5.544-4.356,5.544-2.772,0-3.465-2.178-2.673-5.445l4.851-22.968C117.167-40.689,117.959-43.065,120.83-43.065Zm20.889-9.108L139.54,0h12.375c4.851-12.573,9.5-24.255,11.583-30.789h.3C163.2-24.057,162.608-12.276,161.717,0h12.474l20.394-52.173H181.814c-6.237,19.305-8.811,29.7-10.4,35.046h-.3c.99-7.821,1.782-19.107,3.069-35.046H162.806c-6.138,17.127-10,28.512-11.88,35.145h-.3c.693-4.455,2.079-18.315,3.861-35.145Zm-347.094,81-.495,54.153c-1.485,3.564-2.772,4.554-5.445,4.554a14.987,14.987,0,0,1-3.168-.3l-2.277,10.692a38.34,38.34,0,0,0,6.336.594c9.108,0,12.969-3.069,18.315-16.038l21.78-53.658H-183.1c-4.356,12.87-9.4,28.314-12.474,38.709h-.4c.891-6.237,2.475-28.215,3.069-38.709Zm53.361-.792c-10,0-15.642,4.752-18.018,15.939l-4.257,20.2c-2.376,11.385,2.475,17.622,13.464,17.622,11.187,0,15.939-5.148,18.315-16.533l4.059-19.008C-135.977,34.272-141.421,28.035-152.014,28.035Zm-.99,9.9c3.168,0,3.267,2.475,2.673,5.445l-4.851,22.968c-.693,3.168-1.683,5.544-4.356,5.544-2.772,0-3.465-2.178-2.673-5.445l4.851-22.968C-156.667,40.311-155.875,37.935-153,37.935Zm56.43-9.108h-12.573l-7.425,35.442c-1.089,4.653-2.376,6.93-5.148,6.93-2.376,0-2.871-1.683-2.178-5.247l7.92-37.125h-12.474l-8.019,38.115c-2.673,12.276,2.871,14.85,7.326,14.85,4.158,0,6.93-.891,10-4.95A41.793,41.793,0,0,0-119.74,81h12.276c.3-2.871,1.386-7.821,3.267-16.533Zm47.817,14.454c1.287-6.138,2.277-10.593,3.267-14.454H-57.469a42.33,42.33,0,0,0-1.485,4.059c-.891-2.574-3.168-4.851-8.019-4.851-9.6,0-12.474,9.306-14.058,16.335l-3.96,18.81c-1.782,8.316-.99,16.434,8.217,16.434a10.112,10.112,0,0,0,8.811-4.653l-.99,4.653c-1.188,5.544-1.881,9.306-5.346,9.306-2.97,0-2.871-2.376-2.574-4.158l.1-.594H-89.248l-.1.5c-1.386,6.831.4,14.058,13.959,14.058,15.642,0,16.83-9.6,19.6-22.374Zm-19.7.693c.792-3.564,1.98-5.643,4.752-5.643,3.069,0,3.069,2.871,2.475,5.94L-64.894,61.4c-1.089,5.148-2.178,7.623-5.148,7.623-2.772,0-3.267-2.178-2.376-6.237ZM-14.108,58.23l2.475-11.682c2.178-10.2.495-18.414-13.068-18.414-12.375,0-16.038,7.821-18.018,17.127l-3.663,17.325c-2.178,10-.891,19.206,12.87,19.206,12.474,0,15.84-7.029,17.622-15.84l.3-1.485H-27.77l-.5,2.277c-.5,2.673-1.287,5.247-4.158,5.247-2.574,0-2.97-2.277-2.277-5.643l1.683-8.118Zm-16.929-9.108,1.188-5.742c.891-4.257,1.881-5.94,4.455-5.94,2.97,0,2.97,2.475,2.277,5.94L-24.3,49.122Zm23.859-9.8h5.049L-8.96,69.813c-1.881,9.108,1.683,11.88,9.306,11.88A26.991,26.991,0,0,0,7.475,80.8l2.079-9.6a15.054,15.054,0,0,1-2.772.2c-2.772,0-3.168-1.386-2.673-3.762l6.336-28.314h5.841l2.277-10.494h-5.94L15.3,17.046H3.019L.347,28.827H-4.9Zm37.323,0h5.049L28.363,69.813c-1.881,9.108,1.683,11.88,9.306,11.88A26.991,26.991,0,0,0,44.8,80.8l2.079-9.6a15.054,15.054,0,0,1-2.772.2c-2.772,0-3.168-1.386-2.673-3.762l6.336-28.314h5.841l2.277-10.494h-5.94l2.673-11.781H40.342L37.669,28.827H32.422ZM49.847,81H62.321l7.722-36.333c.99-4.554,2.079-6.336,4.851-6.336,2.871,0,3.069,2.079,2.376,5.445L69.35,81H81.824l8.415-39.6c1.683-7.524-.2-13.365-7.92-13.365a12.478,12.478,0,0,0-9.7,4.356L76.973,12H64.5Zm74.646-22.77,2.475-11.682c2.178-10.2.5-18.414-13.068-18.414-12.375,0-16.038,7.821-18.018,17.127L92.218,62.586c-2.178,10-.891,19.206,12.87,19.206,12.474,0,15.84-7.029,17.622-15.84l.3-1.485H110.83l-.5,2.277c-.5,2.673-1.287,5.247-4.158,5.247-2.574,0-2.97-2.277-2.277-5.643l1.683-8.118Zm-16.929-9.108,1.188-5.742c.891-4.257,1.881-5.94,4.455-5.94,2.97,0,2.97,2.475,2.277,5.94L114.3,49.122Zm52.272-21.087c-4.752.1-9.4,2.079-12.177,8.217.693-3.168,1.089-5.94,1.287-7.425H136.966c-.495,3.465-1.683,8.811-3.564,17.721L126.076,81H138.55l5.544-26.631c1.881-8.613,4.851-11.88,12.474-11.583Zm29.3,30.2,2.475-11.682c2.178-10.2.495-18.414-13.068-18.414-12.375,0-16.038,7.821-18.018,17.127l-3.663,17.325c-2.178,10-.891,19.206,12.87,19.206,12.474,0,15.84-7.029,17.622-15.84l.3-1.485H175.477l-.495,2.277c-.5,2.673-1.287,5.247-4.158,5.247-2.574,0-2.97-2.277-2.277-5.643l1.683-8.118ZM172.21,49.122,173.4,43.38c.891-4.257,1.881-5.94,4.455-5.94,2.97,0,2.97,2.475,2.277,5.94l-1.188,5.742ZM202.6,81l3.267-15.741H193.792L190.426,81Z" transform="translate(720 352)" fill="#ffd946"/>
    <path id="Path_43" data-name="Path 43" d="M-178.083-12.186V0h2.178V-12.186ZM-171.783,0V-3.546c0-2.2,0-3.978-.09-5.49h.018c.162.558.612,1.854,3.222,9.036h2.376V-12.186h-1.962V-8.82c0,2,.018,3.8.108,5.256h-.018c-.144-.594-.63-1.89-3.15-8.622h-2.466V0Zm9.288,0h2.178V-10.278h2.61v-1.908h-7.4v1.908h2.61Zm9.09-5.2c1.386,0,1.764.558,1.764,2.2v.432a10.1,10.1,0,0,0,.2,2.574h2.106a15.313,15.313,0,0,1-.162-2.556v-.486c0-1.8-.45-2.592-1.386-3.042A2.744,2.744,0,0,0-149.3-8.856c0-2.16-1.26-3.33-3.474-3.33H-156.5V0h2.16V-5.2Zm-.936-5.22h1.242a1.463,1.463,0,0,1,1.62,1.674c0,1.224-.522,1.782-1.836,1.782h-1.026Zm10.35-1.944c-2.5,0-4,1.764-4,6.156,0,4.518,1.278,6.426,3.906,6.426,2.808,0,4.014-1.944,4.014-6.39C-140.067-10.4-141.327-12.366-143.991-12.366Zm-.036,1.836c1.314,0,1.728,1.476,1.728,4.3,0,3.024-.378,4.608-1.728,4.608-1.278,0-1.728-1.71-1.728-4.608C-145.755-8.946-145.341-10.53-144.027-10.53ZM-138.357,0h3.006c3.348,0,4.518-2.232,4.518-6.336,0-3.834-1.224-5.85-4.356-5.85h-3.168Zm2.2-10.368h.792c1.764,0,2.286,1.242,2.286,4.032,0,3.276-.594,4.554-2.3,4.554h-.774Zm6.93-1.818v8.442c0,2.286.846,3.96,3.744,3.96,2.934,0,3.78-1.782,3.78-3.96v-8.442h-2.178V-3.78c0,1.17-.27,2.16-1.566,2.16-1.35,0-1.6-1.188-1.6-2.178v-8.388Zm14.544,8.64c-.054.468-.162,1.944-1.458,1.944-1.422,0-1.656-2.16-1.656-4.464,0-2.79.342-4.464,1.71-4.464,1.35,0,1.368,1.494,1.4,1.908h2.16c-.054-.972-.306-3.744-3.528-3.744-2.844,0-4,2.322-4,6.264,0,3.276.4,6.318,3.87,6.318,3.366,0,3.6-3.15,3.654-3.762Zm3.528-8.64V0h2.178V-12.186ZM-104.859,0V-3.546c0-2.2,0-3.978-.09-5.49h.018c.162.558.612,1.854,3.222,9.036h2.376V-12.186H-101.3V-8.82c0,2,.018,3.8.108,5.256h-.018c-.144-.594-.63-1.89-3.15-8.622h-2.466V0Zm14.886-6.84h-3.8v1.854h1.638V-4.3c0,1.8-.36,2.682-1.512,2.682-1.386,0-1.728-1.566-1.728-4.392,0-2.646.4-4.518,1.8-4.518,1.3,0,1.4,1.224,1.44,1.71h2.142a3.327,3.327,0,0,0-3.51-3.546c-2.61,0-4.122,1.908-4.122,6.354,0,3.96.918,6.228,3.474,6.228a2.475,2.475,0,0,0,2.412-1.26A9.757,9.757,0,0,0-91.629,0h1.656ZM-80.217,0l3.06-12.186h-2.286l-1.08,5.22c-.342,1.6-.792,3.42-.936,4.644H-81.5c-.144-1.26-.468-3.06-.828-4.7l-1.116-5.166H-85.8L-82.773,0Zm10.188-7.308h-3.924v-2.97h4.1v-1.908H-76.1V0h6.264l.27-1.872h-4.392V-5.418h3.924ZM-68.229,0h2.178V-5.472h2.934V0h2.2V-12.186h-2.2v4.824h-2.934v-4.824h-2.178ZM-58.8-12.186V0h2.178V-12.186Zm9.288,8.64c-.054.468-.162,1.944-1.458,1.944-1.422,0-1.656-2.16-1.656-4.464,0-2.79.342-4.464,1.71-4.464,1.35,0,1.368,1.494,1.4,1.908h2.16c-.054-.972-.306-3.744-3.528-3.744-2.844,0-4,2.322-4,6.264,0,3.276.4,6.318,3.87,6.318,3.366,0,3.6-3.15,3.654-3.762ZM-45.981,0h6.138l.216-1.854H-43.8V-12.186h-2.178Zm13.518-7.308h-3.924v-2.97h4.1v-1.908h-6.246V0h6.264L-32-1.872h-4.392V-5.418h3.924Zm1.35,1.674V-3.78h3.942V-5.634Zm12.96-1.206h-3.8v1.854h1.638V-4.3c0,1.8-.36,2.682-1.512,2.682-1.386,0-1.728-1.566-1.728-4.392,0-2.646.4-4.518,1.8-4.518,1.3,0,1.4,1.224,1.44,1.71h2.142a3.327,3.327,0,0,0-3.51-3.546c-2.61,0-4.122,1.908-4.122,6.354,0,3.96.918,6.228,3.474,6.228a2.475,2.475,0,0,0,2.412-1.26A9.756,9.756,0,0,0-19.809,0h1.656ZM-13.167-5.2c1.386,0,1.764.558,1.764,2.2v.432A10.1,10.1,0,0,0-11.2,0H-9.1a15.312,15.312,0,0,1-.162-2.556v-.486c0-1.8-.45-2.592-1.386-3.042A2.744,2.744,0,0,0-9.063-8.856c0-2.16-1.26-3.33-3.474-3.33h-3.726V0h2.16V-5.2Zm-.936-5.22h1.242a1.463,1.463,0,0,1,1.62,1.674c0,1.224-.522,1.782-1.836,1.782H-14.1ZM-2.583-3.06-1.989,0H.3L-2.547-12.186H-5.373L-8.2,0h2.178l.612-3.06ZM-5.031-4.95c.45-2.25.846-4.086.99-5.2h.054c.2,1.152.558,2.862,1.008,5.2ZM1.359,0H4.365C7.713,0,8.883-2.232,8.883-6.336c0-3.834-1.224-5.85-4.356-5.85H1.359Zm2.2-10.368h.792c1.764,0,2.286,1.242,2.286,4.032,0,3.276-.594,4.554-2.3,4.554H3.555Zm13.1,3.06H12.735v-2.97h4.1v-1.908H10.593V0h6.264l.27-1.872H12.735V-5.418h3.924Zm11.268,0H24v-2.97h4.1v-1.908H21.861V0h6.264l.27-1.872H24V-5.418h3.924ZM29.727,0h6.138l.216-1.854H31.9V-12.186H29.727ZM43.245-7.308H39.321v-2.97h4.1v-1.908H37.179V0h6.264l.27-1.872H39.321V-5.418h3.924ZM50.1-3.546c-.054.468-.162,1.944-1.458,1.944-1.422,0-1.656-2.16-1.656-4.464,0-2.79.342-4.464,1.71-4.464,1.35,0,1.368,1.494,1.4,1.908h2.16c-.054-.972-.306-3.744-3.528-3.744-2.844,0-4,2.322-4,6.264,0,3.276.4,6.318,3.87,6.318,3.366,0,3.6-3.15,3.654-3.762ZM55.539,0h2.178V-10.278h2.61v-1.908h-7.4v1.908h2.61Zm9.09-5.2c1.386,0,1.764.558,1.764,2.2v.432A10.1,10.1,0,0,0,66.591,0H68.7a15.313,15.313,0,0,1-.162-2.556v-.486c0-1.8-.45-2.592-1.386-3.042a2.744,2.744,0,0,0,1.584-2.772c0-2.16-1.26-3.33-3.474-3.33H61.533V0h2.16V-5.2Zm-.936-5.22h1.242a1.463,1.463,0,0,1,1.62,1.674c0,1.224-.522,1.782-1.836,1.782H63.693Zm6.7-1.764V0h2.178V-12.186Zm9.288,8.64c-.054.468-.162,1.944-1.458,1.944-1.422,0-1.656-2.16-1.656-4.464,0-2.79.342-4.464,1.71-4.464,1.35,0,1.368,1.494,1.4,1.908h2.16c-.054-.972-.306-3.744-3.528-3.744-2.844,0-4,2.322-4,6.264,0,3.276.4,6.318,3.87,6.318,3.366,0,3.6-3.15,3.654-3.762Zm6.336.144c.072,1.818.918,3.618,3.726,3.618,2.574,0,3.762-1.584,3.762-3.51,0-2.034-.99-3.006-3.168-4.014-1.422-.666-1.818-1.08-1.818-1.962,0-.828.378-1.386,1.242-1.386,1.116,0,1.3,1.026,1.35,1.728h2.142c-.036-1.584-.7-3.438-3.456-3.438A3.132,3.132,0,0,0,86.337-9.09c0,1.818.828,2.7,2.916,3.69,1.53.72,2.016,1.314,2.016,2.3,0,.918-.4,1.584-1.458,1.584-1.116,0-1.53-.882-1.638-1.89Zm9,3.4h2.142V-4.05l1.1-1.548L100.539,0h2.412l-3.2-7.416,3.15-4.77h-2.52c-.972,1.584-2.538,4.356-3.222,5.472v-5.472H95.013Zm13.554-3.06L109.161,0h2.286L108.6-12.186h-2.826L102.951,0h2.178l.612-3.06Zm-2.448-1.89c.45-2.25.846-4.086.99-5.2h.054c.2,1.152.558,2.862,1.008,5.2ZM113.247,0h2.178V-10.278h2.61v-1.908h-7.4v1.908h2.61Zm12.06-7.308h-3.924v-2.97h4.1v-1.908h-6.246V0h6.264l.27-1.872h-4.392V-5.418h3.924ZM127.089,0h3.672a3.361,3.361,0,0,0,3.672-3.582,2.853,2.853,0,0,0-1.764-2.97,2.454,2.454,0,0,0,1.4-2.538c0-1.926-1.152-3.1-3.276-3.1h-3.708Zm2.142-7.326V-10.44h1.116c1.08,0,1.638.486,1.638,1.548,0,1.044-.36,1.566-1.71,1.566Zm0,1.71h1.062c1.422,0,1.944.738,1.944,2,0,1.368-.63,1.926-1.71,1.926h-1.3Zm10.368-6.75c-2.5,0-4,1.764-4,6.156,0,4.518,1.278,6.426,3.906,6.426,2.808,0,4.014-1.944,4.014-6.39C143.523-10.4,142.263-12.366,139.6-12.366Zm-.036,1.836c1.314,0,1.728,1.476,1.728,4.3,0,3.024-.378,4.608-1.728,4.608-1.278,0-1.728-1.71-1.728-4.608C137.835-8.946,138.249-10.53,139.563-10.53Zm10.224,7.47L150.381,0h2.286l-2.844-12.186H147L144.171,0h2.178l.612-3.06Zm-2.448-1.89c.45-2.25.846-4.086.99-5.2h.054c.2,1.152.558,2.862,1.008,5.2Zm9.486-.252c1.386,0,1.764.558,1.764,2.2v.432a10.1,10.1,0,0,0,.2,2.574h2.106a15.313,15.313,0,0,1-.162-2.556v-.486c0-1.8-.45-2.592-1.386-3.042a2.744,2.744,0,0,0,1.584-2.772c0-2.16-1.26-3.33-3.474-3.33h-3.726V0h2.16V-5.2Zm-.936-5.22h1.242a1.463,1.463,0,0,1,1.62,1.674c0,1.224-.522,1.782-1.836,1.782h-1.026ZM162.585,0h3.006c3.348,0,4.518-2.232,4.518-6.336,0-3.834-1.224-5.85-4.356-5.85h-3.168Zm2.2-10.368h.792c1.764,0,2.286,1.242,2.286,4.032,0,3.276-.594,4.554-2.3,4.554h-.774ZM171.153-3.4c.072,1.818.918,3.618,3.726,3.618,2.574,0,3.762-1.584,3.762-3.51,0-2.034-.99-3.006-3.168-4.014-1.422-.666-1.818-1.08-1.818-1.962,0-.828.378-1.386,1.242-1.386,1.116,0,1.3,1.026,1.35,1.728h2.142c-.036-1.584-.7-3.438-3.456-3.438a3.132,3.132,0,0,0-3.456,3.276c0,1.818.828,2.7,2.916,3.69,1.53.72,2.016,1.314,2.016,2.3,0,.918-.4,1.584-1.458,1.584-1.116,0-1.53-.882-1.638-1.89Z" transform="translate(720 262)" fill="#fff"/>
  </g>
</svg>
